<?xml version="1.0" encoding="UTF-8" standalone="no"?>
<!DOCTYPE svg PUBLIC "-//W3C//DTD SVG 1.1//EN"
 "http://www.w3.org/Graphics/SVG/1.1/DTD/svg11.dtd">
<!-- Generated by graphviz version 2.40.1 (20161225.0304)
 -->
<!-- Title: %0 Pages: 1 -->
<svg width="701pt" height="360pt"
 viewBox="0.00 0.00 700.75 359.60" xmlns="http://www.w3.org/2000/svg" xmlns:xlink="http://www.w3.org/1999/xlink">
<g id="graph0" class="graph" transform="scale(1 1) rotate(0) translate(4 355.6)">
<title>%0</title>
<polygon fill="#ffffff" stroke="transparent" points="-4,4 -4,-355.6 696.745,-355.6 696.745,4 -4,4"/>
<!-- import -->
<g id="node1" class="node">
<title>import</title>
<polygon fill="#ffffff" stroke="#000000" points="99.3688,-279.8 .2098,-279.8 .2098,-243.8 99.3688,-243.8 99.3688,-279.8"/>
<text text-anchor="middle" x="49.7893" y="-257.6" font-family="Times,serif" font-size="14.00" fill="#000000">Import Dataset</text>
</g>
<!-- sem_char -->
<g id="node6" class="node">
<title>sem_char</title>
<polygon fill="#ffffff" stroke="#000000" points="243.1856,-282.4019 135.7094,-282.4019 135.7094,-241.1981 243.1856,-241.1981 243.1856,-282.4019"/>
<text text-anchor="middle" x="189.4475" y="-266" font-family="Times,serif" font-size="14.00" fill="#000000">Semantic</text>
<text text-anchor="middle" x="189.4475" y="-249.2" font-family="Times,serif" font-size="14.00" fill="#000000">Characterisation</text>
</g>
<!-- import&#45;&gt;sem_char -->
<g id="edge10" class="edge">
<title>import&#45;&gt;sem_char</title>
<path fill="none" stroke="#000000" d="M99.4208,-261.8C107.7608,-261.8 116.5214,-261.8 125.1678,-261.8"/>
<polygon fill="#000000" stroke="#000000" points="125.2334,-265.3001 135.2334,-261.8 125.2333,-258.3001 125.2334,-265.3001"/>
</g>
<!-- review -->
<g id="node2" class="node">
<title>review</title>
<polygon fill="#ffffff" stroke="#000000" points="573.5363,-118.2014 502.6555,-118.2014 502.6555,-59.3986 573.5363,-59.3986 573.5363,-118.2014"/>
<text text-anchor="middle" x="538.0959" y="-101.4" font-family="Times,serif" font-size="14.00" fill="#000000">Final</text>
<text text-anchor="middle" x="538.0959" y="-84.6" font-family="Times,serif" font-size="14.00" fill="#000000">Summary</text>
<text text-anchor="middle" x="538.0959" y="-67.8" font-family="Times,serif" font-size="14.00" fill="#000000">Report</text>
</g>
<!-- export -->
<g id="node3" class="node">
<title>export</title>
<polygon fill="#ffffff" stroke="#000000" points="686.9028,-75.4019 628.9504,-75.4019 628.9504,-34.1981 686.9028,-34.1981 686.9028,-75.4019"/>
<text text-anchor="middle" x="657.9266" y="-59" font-family="Times,serif" font-size="14.00" fill="#000000">Export</text>
<text text-anchor="middle" x="657.9266" y="-42.2" font-family="Times,serif" font-size="14.00" fill="#000000">Dataset</text>
</g>
<!-- review&#45;&gt;export -->
<g id="edge6" class="edge">
<title>review&#45;&gt;export</title>
<path fill="none" stroke="#000000" d="M573.4009,-78.7828C587.7607,-74.7084 604.4032,-69.9864 619.1038,-65.8153"/>
<polygon fill="#000000" stroke="#000000" points="620.2541,-69.1272 628.9189,-63.0305 618.3433,-62.393 620.2541,-69.1272"/>
</g>
<!-- completeness -->
<g id="node4" class="node">
<title>completeness</title>
<polygon fill="#ffffff" stroke="#000000" points="585.1384,-351.4019 491.0534,-351.4019 491.0534,-310.1981 585.1384,-310.1981 585.1384,-351.4019"/>
<text text-anchor="middle" x="538.0959" y="-335" font-family="Times,serif" font-size="14.00" fill="#000000">Assess</text>
<text text-anchor="middle" x="538.0959" y="-318.2" font-family="Times,serif" font-size="14.00" fill="#000000">Completeness</text>
</g>
<!-- merge -->
<g id="node11" class="node">
<title>merge</title>
<polygon fill="none" stroke="#000000" stroke-dasharray="5,2" points="692.5643,-249.4019 623.2889,-249.4019 623.2889,-208.1981 692.5643,-208.1981 692.5643,-249.4019"/>
<text text-anchor="middle" x="657.9266" y="-233" font-family="Times,serif" font-size="14.00" fill="#000000">Merge</text>
<text text-anchor="middle" x="657.9266" y="-216.2" font-family="Times,serif" font-size="14.00" fill="#000000">Variables</text>
</g>
<!-- completeness&#45;&gt;merge -->
<g id="edge5" class="edge">
<title>completeness&#45;&gt;merge</title>
<path fill="none" stroke="#000000" d="M574.1256,-310.159C578.6128,-307.1816 583.0466,-304.0275 587.1082,-300.8 603.5548,-287.7308 620.1189,-271.1239 633.088,-257.1534"/>
<polygon fill="#000000" stroke="#000000" points="635.7355,-259.4447 639.8997,-249.7025 630.5691,-254.7215 635.7355,-259.4447"/>
</g>
<!-- entropy -->
<g id="node5" class="node">
<title>entropy</title>
<polygon fill="#ffffff" stroke="#000000" points="587.1205,-292.2014 489.0713,-292.2014 489.0713,-233.3986 587.1205,-233.3986 587.1205,-292.2014"/>
<text text-anchor="middle" x="538.0959" y="-275.4" font-family="Times,serif" font-size="14.00" fill="#000000">Remove</text>
<text text-anchor="middle" x="538.0959" y="-258.6" font-family="Times,serif" font-size="14.00" fill="#000000">Variables with</text>
<text text-anchor="middle" x="538.0959" y="-241.8" font-family="Times,serif" font-size="14.00" fill="#000000">Zero Entropy</text>
</g>
<!-- entropy&#45;&gt;merge -->
<g id="edge7" class="edge">
<title>entropy&#45;&gt;merge</title>
<path fill="none" stroke="#000000" d="M587.1814,-248.8728C595.8222,-246.4211 604.7739,-243.8812 613.285,-241.4663"/>
<polygon fill="#000000" stroke="#000000" points="614.364,-244.7984 623.0289,-238.7017 612.4532,-238.0642 614.364,-244.7984"/>
</g>
<!-- missing -->
<g id="node7" class="node">
<title>missing</title>
<polygon fill="#ffffff" stroke="#000000" points="453.1412,-292.2014 391.911,-292.2014 391.911,-233.3986 453.1412,-233.3986 453.1412,-292.2014"/>
<text text-anchor="middle" x="422.5261" y="-275.4" font-family="Times,serif" font-size="14.00" fill="#000000">Clean</text>
<text text-anchor="middle" x="422.5261" y="-258.6" font-family="Times,serif" font-size="14.00" fill="#000000">Missing</text>
<text text-anchor="middle" x="422.5261" y="-241.8" font-family="Times,serif" font-size="14.00" fill="#000000">Values</text>
</g>
<!-- sem_char&#45;&gt;missing -->
<g id="edge13" class="edge">
<title>sem_char&#45;&gt;missing</title>
<path fill="none" stroke="#000000" d="M243.5424,-268.8008C255.3148,-270.0497 267.7173,-271.1567 279.3164,-271.8 313.3318,-273.6867 321.9779,-274.0877 355.9686,-271.8 364.3223,-271.2378 373.2261,-270.2829 381.7142,-269.1998"/>
<polygon fill="#000000" stroke="#000000" points="382.3575,-272.6447 391.7966,-267.833 381.4171,-265.7082 382.3575,-272.6447"/>
</g>
<!-- nlp -->
<g id="node9" class="node">
<title>nlp</title>
<polygon fill="#ffffff" stroke="#000000" stroke-dasharray="5,2" points="355.7955,-263.2014 279.4895,-263.2014 279.4895,-204.3986 355.7955,-204.3986 355.7955,-263.2014"/>
<text text-anchor="middle" x="317.6425" y="-246.4" font-family="Times,serif" font-size="14.00" fill="#000000">Natural</text>
<text text-anchor="middle" x="317.6425" y="-229.6" font-family="Times,serif" font-size="14.00" fill="#000000">Language</text>
<text text-anchor="middle" x="317.6425" y="-212.8" font-family="Times,serif" font-size="14.00" fill="#000000">Processing</text>
</g>
<!-- sem_char&#45;&gt;nlp -->
<g id="edge11" class="edge">
<title>sem_char&#45;&gt;nlp</title>
<path fill="none" stroke="#000000" stroke-dasharray="5,2" d="M243.4422,-250.0066C252.0041,-248.1365 260.8128,-246.2126 269.2363,-244.3728"/>
<polygon fill="#000000" stroke="#000000" points="270.2547,-247.7329 279.2775,-242.1796 268.7609,-240.8941 270.2547,-247.7329"/>
</g>
<!-- missing&#45;&gt;completeness -->
<g id="edge1" class="edge">
<title>missing&#45;&gt;completeness</title>
<path fill="none" stroke="#000000" d="M453.1933,-280.8442C465.7003,-288.2032 480.3993,-296.8519 494.0198,-304.8661"/>
<polygon fill="#000000" stroke="#000000" points="492.3872,-307.9664 502.7809,-310.021 495.937,-301.9332 492.3872,-307.9664"/>
</g>
<!-- missing&#45;&gt;entropy -->
<g id="edge4" class="edge">
<title>missing&#45;&gt;entropy</title>
<path fill="none" stroke="#000000" d="M453.1933,-262.8C461.1614,-262.8 470.0192,-262.8 478.9211,-262.8"/>
<polygon fill="#000000" stroke="#000000" points="478.9452,-266.3001 488.9451,-262.8 478.9451,-259.3001 478.9452,-266.3001"/>
</g>
<!-- internal_con -->
<g id="node10" class="node">
<title>internal_con</title>
<polygon fill="#ffffff" stroke="#000000" points="580.5332,-215.4019 495.6586,-215.4019 495.6586,-174.1981 580.5332,-174.1981 580.5332,-215.4019"/>
<text text-anchor="middle" x="538.0959" y="-199" font-family="Times,serif" font-size="14.00" fill="#000000">Internal</text>
<text text-anchor="middle" x="538.0959" y="-182.2" font-family="Times,serif" font-size="14.00" fill="#000000">Consistency</text>
</g>
<!-- missing&#45;&gt;internal_con -->
<g id="edge2" class="edge">
<title>missing&#45;&gt;internal_con</title>
<path fill="none" stroke="#000000" d="M453.1933,-244.7558C465.7003,-237.3968 480.3993,-228.7481 494.0198,-220.7339"/>
<polygon fill="#000000" stroke="#000000" points="495.937,-223.6668 502.7809,-215.579 492.3872,-217.6336 495.937,-223.6668"/>
</g>
<!-- encode -->
<g id="node8" class="node">
<title>encode</title>
<polygon fill="#ffffff" stroke="#000000" points="451.5079,-109.4019 393.5443,-109.4019 393.5443,-68.1981 451.5079,-68.1981 451.5079,-109.4019"/>
<text text-anchor="middle" x="422.5261" y="-93" font-family="Times,serif" font-size="14.00" fill="#000000">Encode</text>
<text text-anchor="middle" x="422.5261" y="-76.2" font-family="Times,serif" font-size="14.00" fill="#000000">Values</text>
</g>
<!-- encode&#45;&gt;review -->
<g id="edge15" class="edge">
<title>encode&#45;&gt;review</title>
<path fill="none" stroke="#000000" d="M451.6892,-88.8C464.0515,-88.8 478.752,-88.8 492.4903,-88.8"/>
<polygon fill="#000000" stroke="#000000" points="492.7539,-92.3001 502.7538,-88.8 492.7538,-85.3001 492.7539,-92.3001"/>
</g>
<!-- se -->
<g id="node12" class="node">
<title>se</title>
<polygon fill="none" stroke="#000000" stroke-dasharray="5,2" points="578.9107,-41.4019 497.2811,-41.4019 497.2811,-.1981 578.9107,-.1981 578.9107,-41.4019"/>
<text text-anchor="middle" x="538.0959" y="-25" font-family="Times,serif" font-size="14.00" fill="#000000">Semantic</text>
<text text-anchor="middle" x="538.0959" y="-8.2" font-family="Times,serif" font-size="14.00" fill="#000000">Enrichment</text>
</g>
<!-- encode&#45;&gt;se -->
<g id="edge8" class="edge">
<title>encode&#45;&gt;se</title>
<path fill="none" stroke="#000000" d="M451.6892,-71.6407C464.5363,-64.0816 479.9086,-55.0368 494.1019,-46.6856"/>
<polygon fill="#000000" stroke="#000000" points="495.91,-49.6827 502.7538,-41.5949 492.3601,-43.6495 495.91,-49.6827"/>
</g>
<!-- nlp&#45;&gt;missing -->
<g id="edge12" class="edge">
<title>nlp&#45;&gt;missing</title>
<path fill="none" stroke="#000000" stroke-dasharray="5,2" d="M355.8046,-244.3517C364.3085,-246.703 373.3547,-249.2043 381.9518,-251.5813"/>
<polygon fill="#000000" stroke="#000000" points="381.2073,-255.0067 391.7784,-254.2983 383.0728,-248.2599 381.2073,-255.0067"/>
</g>
<!-- internal_con&#45;&gt;merge -->
<g id="edge3" class="edge">
<title>internal_con&#45;&gt;merge</title>
<path fill="none" stroke="#000000" d="M580.3437,-206.7871C591.0744,-209.8318 602.6355,-213.112 613.4722,-216.1868"/>
<polygon fill="#000000" stroke="#000000" points="612.6004,-219.5775 623.1761,-218.9401 614.5112,-212.8434 612.6004,-219.5775"/>
</g>
<!-- merge&#45;&gt;encode -->
<g id="edge14" class="edge">
<title>merge&#45;&gt;encode</title>
<path fill="none" stroke="#000000" d="M639.0673,-208.1904C625.6345,-194.4592 606.5764,-176.799 587.1082,-164.8 547.3309,-140.2839 531.2727,-146.8837 489.0836,-126.8 479.6226,-122.2962 469.6841,-116.9674 460.4572,-111.7474"/>
<polygon fill="#000000" stroke="#000000" points="461.9243,-108.5535 451.5115,-106.5982 458.4322,-114.6202 461.9243,-108.5535"/>
</g>
<!-- se&#45;&gt;export -->
<g id="edge9" class="edge">
<title>se&#45;&gt;export</title>
<path fill="none" stroke="#000000" d="M578.9997,-32.4058C591.9465,-36.0792 606.2145,-40.1275 619.0174,-43.7602"/>
<polygon fill="#000000" stroke="#000000" points="618.3421,-47.2066 628.9177,-46.5692 620.2529,-40.4725 618.3421,-47.2066"/>
</g>
</g>
</svg>
