<?xml version="1.0" encoding="UTF-8" standalone="no"?>
<!DOCTYPE svg PUBLIC "-//W3C//DTD SVG 1.1//EN"
 "http://www.w3.org/Graphics/SVG/1.1/DTD/svg11.dtd">
<!-- Generated by graphviz version 2.40.1 (20161225.0304)
 -->
<!-- Title: %0 Pages: 1 -->
<svg width="900pt" height="252pt"
 viewBox="0.00 0.00 899.69 252.00" xmlns="http://www.w3.org/2000/svg" xmlns:xlink="http://www.w3.org/1999/xlink">
<g id="graph0" class="graph" transform="scale(1 1) rotate(0) translate(4 248)">
<title>%0</title>
<polygon fill="#ffffff" stroke="transparent" points="-4,4 -4,-248 895.6946,-248 895.6946,4 -4,4"/>
<!-- in_onto -->
<g id="node1" class="node">
<title>in_onto</title>
<polygon fill="none" stroke="#000000" stroke-width="1.5" points="110.7364,-232.8 -.2462,-232.8 -.2462,-196.8 110.7364,-196.8 110.7364,-232.8"/>
<text text-anchor="middle" x="55.2451" y="-210.6" font-family="Times,serif" font-size="14.00" fill="#000000">Import Ontology</text>
</g>
<!-- qual_mf -->
<g id="node6" class="node">
<title>qual_mf</title>
<polygon fill="none" stroke="#000000" stroke-width="1.5" points="249.0227,-244.2014 146.6457,-244.2014 146.6457,-185.3986 249.0227,-185.3986 249.0227,-244.2014"/>
<text text-anchor="middle" x="197.8342" y="-227.4" font-family="Times,serif" font-size="14.00" fill="#000000">Calculate Node</text>
<text text-anchor="middle" x="197.8342" y="-210.6" font-family="Times,serif" font-size="14.00" fill="#000000">Information</text>
<text text-anchor="middle" x="197.8342" y="-193.8" font-family="Times,serif" font-size="14.00" fill="#000000">Content</text>
</g>
<!-- in_onto&#45;&gt;qual_mf -->
<g id="edge3" class="edge">
<title>in_onto&#45;&gt;qual_mf</title>
<path fill="none" stroke="#000000" d="M110.7821,-214.8C119.121,-214.8 127.7627,-214.8 136.2192,-214.8"/>
<polygon fill="#000000" stroke="#000000" points="136.4098,-218.3001 146.4098,-214.8 136.4098,-211.3001 136.4098,-218.3001"/>
</g>
<!-- in_data -->
<g id="node2" class="node">
<title>in_data</title>
<polygon fill="none" stroke="#000000" stroke-width="1.5" points="104.8246,-175.8 5.6656,-175.8 5.6656,-139.8 104.8246,-139.8 104.8246,-175.8"/>
<text text-anchor="middle" x="55.2451" y="-153.6" font-family="Times,serif" font-size="14.00" fill="#000000">Import Dataset</text>
</g>
<!-- map_vars -->
<g id="node4" class="node">
<title>map_vars</title>
<polygon fill="none" stroke="#000000" stroke-width="1.5" points="376.9972,-203.8 307.7218,-203.8 307.7218,-111.8 376.9972,-111.8 376.9972,-203.8"/>
<text text-anchor="middle" x="342.3595" y="-187.2" font-family="Times,serif" font-size="14.00" fill="#000000">Map</text>
<text text-anchor="middle" x="342.3595" y="-170.4" font-family="Times,serif" font-size="14.00" fill="#000000">Variables</text>
<text text-anchor="middle" x="342.3595" y="-153.6" font-family="Times,serif" font-size="14.00" fill="#000000">to</text>
<text text-anchor="middle" x="342.3595" y="-136.8" font-family="Times,serif" font-size="14.00" fill="#000000">Ontology</text>
<text text-anchor="middle" x="342.3595" y="-120" font-family="Times,serif" font-size="14.00" fill="#000000">Entities</text>
</g>
<!-- in_data&#45;&gt;map_vars -->
<g id="edge1" class="edge">
<title>in_data&#45;&gt;map_vars</title>
<path fill="none" stroke="#000000" d="M104.9288,-157.8C159.1348,-157.8 245.1386,-157.8 297.4045,-157.8"/>
<polygon fill="#000000" stroke="#000000" points="297.7051,-161.3001 307.705,-157.8 297.705,-154.3001 297.7051,-161.3001"/>
</g>
<!-- in_map -->
<g id="node3" class="node">
<title>in_map</title>
<polygon fill="none" stroke="#000000" stroke-width="1.5" points="109.3974,-121.4019 1.0928,-121.4019 1.0928,-80.1981 109.3974,-80.1981 109.3974,-121.4019"/>
<text text-anchor="middle" x="55.2451" y="-105" font-family="Times,serif" font-size="14.00" fill="#000000">Import Mapping</text>
<text text-anchor="middle" x="55.2451" y="-88.2" font-family="Times,serif" font-size="14.00" fill="#000000">File</text>
</g>
<!-- in_map&#45;&gt;map_vars -->
<g id="edge2" class="edge">
<title>in_map&#45;&gt;map_vars</title>
<path fill="none" stroke="#000000" d="M109.5867,-111.5883C164.0366,-122.3981 246.8564,-138.84 297.6297,-148.9199"/>
<polygon fill="#000000" stroke="#000000" points="297.1574,-152.3944 307.6475,-150.9087 298.5205,-145.5284 297.1574,-152.3944"/>
</g>
<!-- relations -->
<g id="node5" class="node">
<title>relations</title>
<polygon fill="none" stroke="#000000" stroke-width="1.5" points="530.9832,-198.8 435.393,-198.8 435.393,-106.8 530.9832,-106.8 530.9832,-198.8"/>
<text text-anchor="middle" x="483.1881" y="-182.2" font-family="Times,serif" font-size="14.00" fill="#000000">Identify</text>
<text text-anchor="middle" x="483.1881" y="-165.4" font-family="Times,serif" font-size="14.00" fill="#000000">Metavariables</text>
<text text-anchor="middle" x="483.1881" y="-148.6" font-family="Times,serif" font-size="14.00" fill="#000000"> &amp; Sets of</text>
<text text-anchor="middle" x="483.1881" y="-131.8" font-family="Times,serif" font-size="14.00" fill="#000000">Descendant</text>
<text text-anchor="middle" x="483.1881" y="-115" font-family="Times,serif" font-size="14.00" fill="#000000">Variables</text>
</g>
<!-- map_vars&#45;&gt;relations -->
<g id="edge5" class="edge">
<title>map_vars&#45;&gt;relations</title>
<path fill="none" stroke="#000000" d="M377.1711,-156.564C391.7408,-156.0468 409.0702,-155.4315 425.4527,-154.8498"/>
<polygon fill="#000000" stroke="#000000" points="425.6282,-158.3459 435.4977,-154.4932 425.3798,-151.3503 425.6282,-158.3459"/>
</g>
<!-- filt_mf -->
<g id="node7" class="node">
<title>filt_mf</title>
<polygon fill="none" stroke="#000000" stroke-width="1.5" points="399.7227,-94.2014 284.9963,-94.2014 284.9963,-35.3986 399.7227,-35.3986 399.7227,-94.2014"/>
<text text-anchor="middle" x="342.3595" y="-77.4" font-family="Times,serif" font-size="14.00" fill="#000000">Label Sets by</text>
<text text-anchor="middle" x="342.3595" y="-60.6" font-family="Times,serif" font-size="14.00" fill="#000000">Most Informative</text>
<text text-anchor="middle" x="342.3595" y="-43.8" font-family="Times,serif" font-size="14.00" fill="#000000">Metavariable</text>
</g>
<!-- relations&#45;&gt;filt_mf -->
<g id="edge6" class="edge">
<title>relations&#45;&gt;filt_mf</title>
<path fill="none" stroke="#000000" d="M435.5376,-123.0245C423.4027,-115.4417 410.257,-107.2273 397.7713,-99.4254"/>
<polygon fill="#000000" stroke="#000000" points="399.5886,-96.4338 389.2534,-94.1027 395.8791,-102.3702 399.5886,-96.4338"/>
</g>
<!-- qual_mf&#45;&gt;map_vars -->
<g id="edge4" class="edge">
<title>qual_mf&#45;&gt;map_vars</title>
<path fill="none" stroke="#000000" d="M249.1954,-194.5434C265.1864,-188.2367 282.6716,-181.3406 298.1309,-175.2435"/>
<polygon fill="#000000" stroke="#000000" points="299.4447,-178.4878 307.4632,-171.5629 296.8764,-171.976 299.4447,-178.4878"/>
</g>
<!-- feat_agg -->
<g id="node8" class="node">
<title>feat_agg</title>
<polygon fill="none" stroke="#000000" stroke-width="1.5" points="650.8765,-74.2014 566.8217,-74.2014 566.8217,-15.3986 650.8765,-15.3986 650.8765,-74.2014"/>
<text text-anchor="middle" x="608.8491" y="-57.4" font-family="Times,serif" font-size="14.00" fill="#000000">Aggregate</text>
<text text-anchor="middle" x="608.8491" y="-40.6" font-family="Times,serif" font-size="14.00" fill="#000000">Variables in</text>
<text text-anchor="middle" x="608.8491" y="-23.8" font-family="Times,serif" font-size="14.00" fill="#000000">Each Set</text>
</g>
<!-- filt_mf&#45;&gt;feat_agg -->
<g id="edge9" class="edge">
<title>filt_mf&#45;&gt;feat_agg</title>
<path fill="none" stroke="#000000" d="M399.6877,-60.5808C437.038,-57.8222 486.8293,-54.1266 530.8354,-50.8 539.2081,-50.1671 548.0859,-49.49 556.7365,-48.827"/>
<polygon fill="#000000" stroke="#000000" points="557.0409,-52.314 566.7435,-48.0586 556.5049,-45.3345 557.0409,-52.314"/>
</g>
<!-- feat_norm -->
<g id="node9" class="node">
<title>feat_norm</title>
<polygon fill="none" stroke="#000000" stroke-width="1.5" stroke-dasharray="5,2" points="520.5016,-41.4019 445.8746,-41.4019 445.8746,-.1981 520.5016,-.1981 520.5016,-41.4019"/>
<text text-anchor="middle" x="483.1881" y="-25" font-family="Times,serif" font-size="14.00" fill="#000000">Normalise</text>
<text text-anchor="middle" x="483.1881" y="-8.2" font-family="Times,serif" font-size="14.00" fill="#000000">Values</text>
</g>
<!-- filt_mf&#45;&gt;feat_norm -->
<g id="edge10" class="edge">
<title>filt_mf&#45;&gt;feat_norm</title>
<path fill="none" stroke="#000000" stroke-dasharray="5,2" d="M399.6399,-46.9035C411.7764,-43.1116 424.4526,-39.1511 436.1566,-35.4944"/>
<polygon fill="#000000" stroke="#000000" points="437.2248,-38.8275 445.726,-32.5045 435.1372,-32.146 437.2248,-38.8275"/>
</g>
<!-- zero_entropy -->
<g id="node11" class="node">
<title>zero_entropy</title>
<polygon fill="none" stroke="#000000" stroke-width="1.5" points="774.1594,-74.2014 687.0964,-74.2014 687.0964,-15.3986 774.1594,-15.3986 774.1594,-74.2014"/>
<text text-anchor="middle" x="730.6279" y="-57.4" font-family="Times,serif" font-size="14.00" fill="#000000">Omit</text>
<text text-anchor="middle" x="730.6279" y="-40.6" font-family="Times,serif" font-size="14.00" fill="#000000">zero entropy</text>
<text text-anchor="middle" x="730.6279" y="-23.8" font-family="Times,serif" font-size="14.00" fill="#000000">aggregations</text>
</g>
<!-- feat_agg&#45;&gt;zero_entropy -->
<g id="edge7" class="edge">
<title>feat_agg&#45;&gt;zero_entropy</title>
<path fill="none" stroke="#000000" d="M651.0996,-44.8C659.3046,-44.8 668.0093,-44.8 676.534,-44.8"/>
<polygon fill="#000000" stroke="#000000" points="676.7974,-48.3001 686.7974,-44.8 676.7973,-41.3001 676.7974,-48.3001"/>
</g>
<!-- feat_norm&#45;&gt;feat_agg -->
<g id="edge11" class="edge">
<title>feat_norm&#45;&gt;feat_agg</title>
<path fill="none" stroke="#000000" stroke-dasharray="5,2" d="M520.5503,-27.9358C531.8545,-30.0948 544.4826,-32.5066 556.5738,-34.8159"/>
<polygon fill="#000000" stroke="#000000" points="556.0842,-38.2856 566.5633,-36.7238 557.3974,-31.4099 556.0842,-38.2856"/>
</g>
<!-- ex_data -->
<g id="node10" class="node">
<title>ex_data</title>
<polygon fill="none" stroke="#000000" stroke-width="1.5" points="891.846,-82.5003 810.2416,-82.5003 810.2416,-7.0997 891.846,-7.0997 891.846,-82.5003"/>
<text text-anchor="middle" x="851.0438" y="-65.8" font-family="Times,serif" font-size="14.00" fill="#000000">Append</text>
<text text-anchor="middle" x="851.0438" y="-49" font-family="Times,serif" font-size="14.00" fill="#000000">Aggregated</text>
<text text-anchor="middle" x="851.0438" y="-32.2" font-family="Times,serif" font-size="14.00" fill="#000000">Variables</text>
<text text-anchor="middle" x="851.0438" y="-15.4" font-family="Times,serif" font-size="14.00" fill="#000000">to Dataset</text>
</g>
<!-- zero_entropy&#45;&gt;ex_data -->
<g id="edge8" class="edge">
<title>zero_entropy&#45;&gt;ex_data</title>
<path fill="none" stroke="#000000" d="M774.4414,-44.8C782.76,-44.8 791.5305,-44.8 800.0489,-44.8"/>
<polygon fill="#000000" stroke="#000000" points="800.2673,-48.3001 810.2673,-44.8 800.2673,-41.3001 800.2673,-48.3001"/>
</g>
</g>
</svg>
